<svg version="1.2" xmlns="http://www.w3.org/2000/svg" viewBox="0 0 80 80" width="80" height="80">
	<title>icon-express-svg</title>
	<style>
		.s0 { fill: #ffffff } 
	</style>
	<path id="Layer" fill-rule="evenodd" class="s0" d="m40 57.5c-0.4 0-0.8-0.2-1-0.5l-17.1-25.4c-4.8-8.3-3.4-18.7 3.3-25.5 3.9-3.9 9.2-6.1 14.8-6.1 5.6 0 10.9 2.2 14.9 6.1 6.7 6.8 8 17.2 3.3 25.4l-17.2 25.5c-0.2 0.3-0.6 0.5-1 0.5zm0-55c-4.9 0-9.6 1.9-13.1 5.4-5.9 5.9-7.1 15.1-2.9 22.3l16 23.8 16.1-23.8c4.1-7.2 2.9-16.4-3-22.3-3.5-3.5-8.2-5.4-13.1-5.4z"/>
	<path id="Layer" fill-rule="evenodd" class="s0" d="m40 32.4c-3 0-5.9-1.2-8-3.4-2.2-2.1-3.4-5-3.4-8 0-3 1.2-5.9 3.4-8.1 2.1-2.1 5-3.3 8-3.3 3 0 5.9 1.2 8.1 3.3 2.1 2.2 3.3 5.1 3.3 8.1 0 3-1.2 5.9-3.3 8-2.2 2.2-5 3.4-8.1 3.4zm0-20.3c-2.4 0-4.6 0.9-6.3 2.6-1.7 1.7-2.6 3.9-2.6 6.3 0 2.4 0.9 4.6 2.6 6.3 3.4 3.3 9.2 3.3 12.6 0 1.7-1.7 2.6-3.9 2.6-6.3 0-2.4-0.9-4.6-2.6-6.3-1.7-1.7-3.9-2.6-6.3-2.6z"/>
	<path id="Layer" class="s0" d="m79 72.1c0 0-5.3-16.1-8.5-25.6-1.1-3.3-3.7-4.9-8-6.8l-3.9-1.7-1.4 2.1 4.3 1.9c4.3 1.8 5.9 3.1 6.6 5.3 3.2 9.5 8.6 25.6 8.6 25.6 1.2 3.5 0.7 4.3 0.7 4.4-0.2 0.1-1.1 0.2-3.9-1l-17-8.3c-0.3-0.2-0.7-0.2-1.1 0l-15.4 8-16.2-8c-0.4-0.2-0.8-0.2-1.1 0l-16.2 8.3c-3 1.4-3.9 1.2-3.9 1.2 0-0.1-0.5-0.7 0.7-4.6 0 0 5.4-16.1 8.6-25.6 0.7-2.1 2-3.2 6.6-5.3l4.4-1.9-1.5-2.1-3.9 1.7c-4.7 2.2-7 3.7-8 6.8-3.1 9.5-8.5 25.6-8.5 25.6-1.2 3.6-1.3 5.6-0.4 6.8 0.3 0.5 1 1.1 2.3 1.1 1.1 0 2.6-0.5 4.7-1.5l15.6-8 16.3 8c0.3 0.2 0.7 0.2 1.1 0l15.4-8 16.5 8.1c1.9 0.8 3.3 1.2 4.5 1.2 1.3 0 2-0.6 2.4-1.1 0.9-1.2 0.8-3.2-0.4-6.6z"/>
</svg>