<svg version="1.2" xmlns="http://www.w3.org/2000/svg" viewBox="0 0 80 80" width="80" height="80">
	<title>icon-delivery-svg</title>
	<style>
		.s0 { fill: #ffffff } 
	</style>
	<path id="Layer" fill-rule="evenodd" class="s0" d="m28.8 64.2c0 4.9-4 8.8-8.8 8.8-4.8 0-8.8-3.9-8.8-8.8 0.1-4.8 4-8.7 8.8-8.7 4.8 0 8.8 3.9 8.8 8.7zm-2.5 0c0-3.4-2.9-6.2-6.3-6.2-3.4 0-6.3 2.8-6.2 6.2 0 3.5 2.8 6.3 6.2 6.3 3.4 0 6.2-2.8 6.3-6.3z"/>
	<path id="Layer" fill-rule="evenodd" class="s0" d="m68.6 64.2c0 4.9-3.9 8.8-8.7 8.8-4.8 0-8.8-3.9-8.8-8.8 0-4.8 4-8.7 8.8-8.7 4.8 0 8.7 3.9 8.7 8.7zm-2.5 0c0-3.4-2.8-6.2-6.2-6.2-3.5 0-6.3 2.8-6.3 6.2 0 3.5 2.8 6.3 6.3 6.3 3.4 0 6.2-2.8 6.2-6.3z"/>
	<path id="Layer" fill-rule="evenodd" class="s0" d="m80 48v11.3c0 3.4-2.8 6.2-6.3 6.2h-3.8v-1.3c0-5.5-4.5-10-10-10-5.5 0-10 4.5-10 10v1.3h-19.9v-1.3c0-5.5-4.5-10-10-10-5.5 0-10 4.5-10 10v1.3h-3.8c-2.1 0-6.2-1.6-6.2-7.5v-17.4h32.6v7q0.3 0 0.4-0.2l11.1-11.1q0.2-0.2 0.2-0.4 0-0.2-0.2-0.4l-11.1-11.1c-0.1-0.1-0.3-0.1-0.4-0.1v7h-32.6v-13.3c0-4.6 3-6.3 5.8-6.3 0.4 0 0.6 0.1 0.6 0.1h43.4c7.9 0 14.4 7.3 19.9 14.2 2.9 3.5 10.3 14.5 10.3 22zm-2.5 0c0-5.7-5.7-15.4-9.7-20.5-2.3-2.8-4.7-5.6-7.2-8v11.6c0 0.1-0.1 1.9 0.9 3q0.7 0.8 2.3 0.8h6.2c0.7 0 1.3 0.5 1.3 1.2 0 0.7-0.6 1.3-1.3 1.3h-6.3q-2.6 0-4.1-1.7c-1.7-1.8-1.5-4.6-1.5-4.7v-13.6c-2.7-1.9-5.4-3.1-8.3-3.1h-43.5c-0.2 0-0.3-0.1-0.5-0.1-1.5 0-3.3 0.7-3.3 3.8v10.8h27.6v-5.8l0.4-0.3c1.1-1.2 3.1-1.2 4.3 0l11.1 11.1c0.6 0.5 0.9 1.3 0.9 2.1 0 0.8-0.3 1.6-0.9 2.2l-11.1 11.1c-1.1 1.1-3.2 1.1-4.3 0l-0.4-0.4v-5.7h-27.6v14.9c0 4.9 3.6 5 3.8 5h1.3c0.6-6.3 5.9-11.2 12.4-11.2 6.5 0 11.8 4.9 12.4 11.2h15c0.7-6.3 6-11.2 12.5-11.2 6.5 0 11.8 4.9 12.4 11.2h1.4c2.1 0 3.8-1.7 3.8-3.7z"/>
</svg>