<svg version="1.2" xmlns="http://www.w3.org/2000/svg" viewBox="0 0 80 80" width="80" height="80">
	<title>icon-gestiones-svg</title>
	<style>
		.s0 { fill: #f4f4f4 } 
		.s1 { fill: #ffffff } 
	</style>
	<g id="Layer">
		<path id="Layer" class="s0" d="m78.1 80h-76.2c-0.7 0-1.3-0.6-1.3-1.2 0-0.7 0.6-1.3 1.3-1.3h76.2c0.7 0 1.3 0.6 1.3 1.3 0 0.6-0.6 1.2-1.3 1.2z"/>
	</g>
	<g id="Layer">
		<path id="Layer" class="s1" d="m23.7 61.8c-1 0-1.8-0.8-1.8-1.9v-9.6c0-1 0.8-1.9 1.8-1.9 1.1 0 1.9 0.9 1.9 1.9v9.6c0 1.1-0.8 1.9-1.9 1.9z"/>
	</g>
	<g id="Layer">
		<path id="Layer" class="s1" d="m52.5 72.7c-0.3 0-0.6-0.2-0.9-0.4-0.5-0.5-0.5-1.3 0-1.8l12.5-12.4c0.5-0.5 1.3-0.5 1.8 0 0.5 0.5 0.5 1.3 0 1.8l-12.5 12.4c-0.3 0.2-0.6 0.4-0.9 0.4z"/>
		<path id="Layer" class="s1" d="m58.8 72.7c-0.4 0-0.7-0.2-0.9-0.4-0.5-0.5-0.5-1.3 0-1.8l6.2-6.2c0.5-0.5 1.3-0.5 1.8 0 0.5 0.5 0.5 1.3 0 1.8l-6.3 6.2c-0.2 0.2-0.5 0.4-0.8 0.4z"/>
	</g>
	<g id="Layer">
		<path id="Layer" class="s1" d="m6.3 78.2c0 0.7 0.5 1.3 1.2 1.3 0.7 0 1.2-0.6 1.2-1.3v-32.6q-1.2-0.2-2.4-0.6z"/>
		<path id="Layer" class="s1" d="m28.9 45.6v32.6c0 0.7 0.6 1.3 1.3 1.3 0.7 0 1.2-0.6 1.2-1.3v-32.6c-0.4 0.1-0.8 0.1-1.2 0.1-0.4 0-0.8-0.1-1.3-0.1z"/>
		<path id="Layer" class="s1" d="m71.2 78.2c0 0.7 0.6 1.3 1.3 1.3 0.7 0 1.2-0.6 1.2-1.3v-33.2q-1.2 0.4-2.5 0.6z"/>
	</g>
	<path id="Layer" fill-rule="evenodd" class="s1" d="m80 29v2.3c0 5.9-4.8 10.7-10.7 10.7-4.4 0-8.1-2.6-9.8-6.4-1.6 3.8-5.4 6.4-9.7 6.4-4.4 0-8.1-2.6-9.8-6.4-1.7 3.8-5.4 6.4-9.8 6.4-4.3 0-8.1-2.6-9.7-6.4-1.7 3.8-5.4 6.4-9.8 6.4-5.9 0-10.7-4.8-10.7-10.7v-2.3l6.5-29h67zm-61.1 1.5h-16.4v0.8c0 4.5 3.7 8.2 8.2 8.2 4.6 0 8.2-3.7 8.2-8.2zm2.2-27.9h-12.6l-5.6 25.4h16.4zm17.4 27.9h-16.5v0.8c0 4.5 3.7 8.2 8.3 8.2 4.5 0 8.2-3.7 8.2-8.2zm0-27.9h-14.8l-1.8 25.4h16.6zm19.5 27.9h-16.4v0.8c0 4.5 3.7 8.2 8.2 8.2 4.5 0 8.2-3.7 8.2-8.2zm0.3-2.6l-2-25.4h-15.1v25.4zm2.6 0h16.3l-5.7-25.4h-12.6zm16.6 2.6h-16.4v0.8c0 4.5 3.7 8.2 8.2 8.2 4.5 0 8.2-3.7 8.2-8.2z"/>
</svg>