<svg version="1.2" xmlns="http://www.w3.org/2000/svg" viewBox="0 0 80 80" width="80" height="80">
	<title>icon-junior-svg</title>
	<style>
		.s0 { fill: #ffffff } 
	</style>
	<path id="Layer" class="s0" d="m73.8 5.9h-67.5c-3.5 0-6.3 2.8-6.3 6.3v40c0 3.4 2.8 6.2 6.3 6.2h31.7v-2.5h-31.7c-2.1 0-3.8-1.6-3.8-3.7v-40c0-2.1 1.7-3.8 3.8-3.8h67.5c2 0 3.7 1.7 3.7 3.8v25.3c0.4 0 2.1-0.1 2.5 0v-25.3c0-3.5-2.8-6.3-6.2-6.3z"/>
	<g id="Layer">
		<path id="Layer" class="s0" d="m8.8 20h6.2v3.4h-6.3z"/>
		<path id="Layer" class="s0" d="m8.8 25.6l-0.1 1.1c0 1.4 1.2 2.5 2.6 2.5h5.9v-3.6z"/>
		<path id="Layer" class="s0" d="m28.8 17.8v-1.1c0-1.4-1.2-2.5-2.5-2.5h-6v3.6z"/>
		<path id="Layer" class="s0" d="m17.2 14.2h-5.9c-1.4 0-2.6 1.1-2.6 2.5v1.1h8.5v-3.6z"/>
		<path id="Layer" class="s0" d="m22.5 20h6.3v3.4h-6.3z"/>
		<path id="Layer" class="s0" d="m20.3 29.2h6c1.3 0 2.5-1.1 2.5-2.5v-1.1h-8.5v3.6z"/>
	</g>
	<path id="Layer" class="s0" d="m36.3 48.4h-26.2c-0.7 0-1.2-0.5-1.2-1.2 0-0.7 0.5-1.3 1.2-1.3h26.2c0.6 0 1.2 0.6 1.2 1.3 0 0.7-0.6 1.2-1.2 1.2z"/>
	<g id="Layer">
		<path id="Layer" class="s0" d="m42.5 36.3h-12.5c-0.7 0-1.2 0.6-1.2 1.3 0 0.7 0.5 1.2 1.2 1.2h12.5c0.7 0 1.3-0.5 1.3-1.2 0-0.7-0.6-1.3-1.3-1.3z"/>
		<path id="Layer" class="s0" d="m23 36.3h-12.7c-0.7 0-1.3 0.6-1.3 1.3 0 0.7 0.6 1.2 1.3 1.2h12.7c0.7 0 1.2-0.5 1.2-1.2 0-0.7-0.5-1.3-1.2-1.3z"/>
	</g>
	<path id="Layer" fill-rule="evenodd" class="s0" d="m80 42.9v30.7c0 3.5-2.9 6.4-6.4 6.4h-25.5c-3.5 0-6.4-2.8-6.4-6.4v-30.7c0-0.6 0.6-1.2 1.3-1.2h4.5v-7.1c0-7.4 6-13.4 13.4-13.4 7.3 0 13.3 6 13.3 13.4v7.1h4.6c0.6 0 1.2 0.6 1.2 1.2zm-30-1.2h21.7v-7.1c0-6-4.9-10.9-10.8-10.9-6 0-10.9 4.9-10.9 10.9zm27.5 2.5h-33.3v29.4c0 2.2 1.7 3.9 3.9 3.9h25.5c2.2 0 3.9-1.7 3.9-3.9z"/>
	<path id="Layer" fill-rule="evenodd" class="s0" d="m67.2 57.4c0 1.8-0.8 3.6-2.1 4.8v4.2c0 2.3-1.9 4.2-4.2 4.2-2.4 0-4.3-1.9-4.3-4.2v-4.2c-1.3-1.2-2.1-2.9-2.1-4.8 0-3.5 2.8-6.3 6.4-6.3 3.5 0 6.3 2.8 6.3 6.3zm-2.5 0c0-2.1-1.7-3.8-3.8-3.8-2.2 0-3.9 1.7-3.9 3.8 0 1.3 0.6 2.4 1.6 3.2l0.5 0.3v5.5c0 0.9 0.8 1.7 1.8 1.7 0.9 0 1.7-0.8 1.7-1.7v-5.5l0.5-0.3c1-0.8 1.6-1.9 1.6-3.2z"/>
</svg>